<?xml version="1.0" encoding="iso-8859-1"?>
<!-- Generator: Adobe Illustrator 19.0.0, SVG Export Plug-In . SVG Version: 6.00 Build 0)  -->
<svg version="1.1" id="Layer_1" xmlns="http://www.w3.org/2000/svg" xmlns:xlink="http://www.w3.org/1999/xlink" x="0px" y="0px"
	 viewBox="0 0 469.334 469.334" style="enable-background:new 0 0 469.334 469.334;" xml:space="preserve">
<g>
	<g>
		<path d="M467.073,366.761c-0.313-0.396-30.948-39.802-40.906-71.302c-2.365-7.5-5.313-18.063-8.698-30.156
			c-16.198-57.917-30.927-107.177-47.26-123.51c-17.697-17.697-86.094-29.505-114.208-33.71V42.667C256,19.136,236.865,0,213.333,0
			H42.667C19.135,0,0,19.136,0,42.667v298.667C0,364.865,19.135,384,42.667,384h170.667c4.608,0,9.057-1.023,13.411-2.522
			c9.288,8.617,19.809,15.174,30.839,21.855c21.74,13.188,44.229,26.823,63.854,60.688c1.906,3.292,5.427,5.313,9.229,5.313
			c101.5,0,137.604-91.26,137.958-92.188C469.969,373.657,469.375,369.709,467.073,366.761z M42.667,362.667
			c-11.76,0-21.333-9.573-21.333-21.333V42.667c0-11.76,9.573-21.333,21.333-21.333V362.667z M256,197.088l33.802,13.527
			c1.656,5.792,4.458,15.167,7.271,22.479c-1.292,2.292-2.406,4.833-3.594,7.542c-1.938,4.417-4.052,9.24-7.01,12.99
			c-10.676-7.609-21.514-23.741-30.469-40.88V197.088z M85.333,362.667H64V21.334h21.333V362.667z M106.667,362.667V21.334h106.667
			c11.76,0,21.333,9.573,21.333,21.333v127.898c-13.313-19.535-35.758-42.634-56.104-46.773
			c-10.208-2.125-19.229,0.448-26.104,7.333c-25.688,25.688-10.979,69.344,9.427,98.927c16.333,23.677,28.448,51.656,30.167,69.625
			c0.281,2.99,0.406,5.823,0.542,8.615c0.664,14.244,1.563,29.073,18.513,54.375H106.667z M336.625,447.875
			c-21.698-34.719-47.25-50.208-67.979-62.781c-14.542-8.813-27.094-16.427-36.021-28.698
			c-17.563-24.156-18.073-35.156-18.719-49.094c-0.146-3.135-0.302-6.313-0.625-9.646c-2.052-21.604-15.333-52.896-33.833-79.708
			c-16.448-23.844-27.177-56.458-11.906-71.74c1.24-1.25,2.896-2.271,6.76-1.521c16.719,3.406,43.688,34.49,50.469,51.302
			c8.167,20.219,30.271,68.542,59.135,80.531c3.281,1.333,7.042,0.99,10.01-0.979c10.667-7.104,15.531-18.219,19.094-26.333
			c1.031-2.333,2.427-5.542,2.396-5.771c4.365-3.021,5.844-8.792,3.469-13.542c-3.25-6.49-8.25-23.854-9.906-30
			c-0.875-3.24-3.219-5.885-6.344-7.135L256,174.111v-44.413c38.766,6,89.074,17.135,99.125,27.177
			c13.708,13.708,31.292,76.594,41.802,114.167c3.458,12.375,6.479,23.177,8.906,30.833c8.938,28.333,31.375,60.458,40.51,72.833
			C437.938,391.75,406.177,444.979,336.625,447.875z"/>
	</g>
</g>
<g>
</g>
<g>
</g>
<g>
</g>
<g>
</g>
<g>
</g>
<g>
</g>
<g>
</g>
<g>
</g>
<g>
</g>
<g>
</g>
<g>
</g>
<g>
</g>
<g>
</g>
<g>
</g>
<g>
</g>
</svg>
