<?xml version="1.0" encoding="iso-8859-1"?>
<!-- Generator: Adobe Illustrator 19.0.0, SVG Export Plug-In . SVG Version: 6.00 Build 0)  -->
<svg version="1.1" id="Layer_1" xmlns="http://www.w3.org/2000/svg" xmlns:xlink="http://www.w3.org/1999/xlink" x="0px" y="0px"
	 viewBox="0 0 512 512" style="enable-background:new 0 0 512 512;" xml:space="preserve">
<g>
	<g>
		<g>
			<path d="M42.667,181.333c0,5.896,4.771,10.667,10.667,10.667h21.333c5.896,0,10.667-4.771,10.667-10.667V160
				c0-5.896-4.771-10.667-10.667-10.667H53.333c-5.896,0-10.667,4.771-10.667,10.667V181.333z"/>
			<path d="M192,42.667h-32c-5.896,0-10.667,4.771-10.667,10.667v21.333c0,5.896,4.771,10.667,10.667,10.667h32
				c5.896,0,10.667-4.771,10.667-10.667V53.333C202.667,47.438,197.896,42.667,192,42.667z"/>
			<path d="M266.667,42.667h-32c-5.896,0-10.667,4.771-10.667,10.667v21.333c0,5.896,4.771,10.667,10.667,10.667h32
				c5.896,0,10.667-4.771,10.667-10.667V53.333C277.333,47.438,272.563,42.667,266.667,42.667z"/>
			<path d="M192,106.667h-32c-5.896,0-10.667,4.771-10.667,10.667v21.333c0,5.896,4.771,10.667,10.667,10.667h32
				c5.896,0,10.667-4.771,10.667-10.667v-21.333C202.667,111.438,197.896,106.667,192,106.667z"/>
			<path d="M266.667,106.667h-32c-5.896,0-10.667,4.771-10.667,10.667v21.333c0,5.896,4.771,10.667,10.667,10.667h32
				c5.896,0,10.667-4.771,10.667-10.667v-21.333C277.333,111.438,272.563,106.667,266.667,106.667z"/>
			<path d="M192,170.667h-32c-5.896,0-10.667,4.771-10.667,10.667v21.333c0,5.896,4.771,10.667,10.667,10.667h32
				c5.896,0,10.667-4.771,10.667-10.667v-21.333C202.667,175.438,197.896,170.667,192,170.667z"/>
			<path d="M266.667,170.667h-32c-5.896,0-10.667,4.771-10.667,10.667v21.333c0,5.896,4.771,10.667,10.667,10.667h32
				c5.896,0,10.667-4.771,10.667-10.667v-21.333C277.333,175.438,272.563,170.667,266.667,170.667z"/>
			<path d="M74.667,213.333H53.333c-5.896,0-10.667,4.771-10.667,10.667v21.333c0,5.896,4.771,10.667,10.667,10.667h21.333
				c5.896,0,10.667-4.771,10.667-10.667V224C85.333,218.104,80.563,213.333,74.667,213.333z"/>
			<path d="M74.667,277.333H53.333c-5.896,0-10.667,4.771-10.667,10.667v21.333c0,5.896,4.771,10.667,10.667,10.667h21.333
				c5.896,0,10.667-4.771,10.667-10.667V288C85.333,282.104,80.563,277.333,74.667,277.333z"/>
			<path d="M426.667,177.84v-28.507c0-23.531-19.146-42.667-42.667-42.667h-64v-64C320,19.135,300.854,0,277.333,0h-128
				c-23.521,0-42.667,19.135-42.667,42.667v64h-64C19.146,106.667,0,125.802,0,149.333V352c0,5.896,4.771,10.667,10.667,10.667
				h106.667h153.353c31.224,74.867,102.15,142.789,105.98,146.417c2.063,1.948,4.688,2.917,7.333,2.917
				c2.646,0,5.271-0.969,7.333-2.917C396.25,504.427,512,393.927,512,298.667C512,241.949,476.819,195.064,426.667,177.84z
				 M106.667,341.333H21.333v-192c0-11.76,9.563-21.333,21.333-21.333h64V341.333z M320,128h64c11.771,0,21.333,9.573,21.333,21.333
				v23.181c-6.94-1.122-14.029-1.848-21.333-1.848V160c0-5.896-4.771-10.667-10.667-10.667H352c-5.896,0-10.667,4.771-10.667,10.667
				v17.84c-7.465,2.564-14.6,5.75-21.333,9.568V128z M234.667,341.333H192V256h42.667V341.333z M263.021,341.333H256v-42.667
				v-53.333c0-5.896-4.771-10.667-10.667-10.667h-64c-5.896,0-10.667,4.771-10.667,10.667v96H128V42.667
				c0-11.76,9.563-21.333,21.333-21.333h128c11.771,0,21.333,9.573,21.333,21.333V202.69C272.405,225.973,256,260.014,256,298.667
				C256,312.69,258.727,327.035,263.021,341.333z M384,486.292c-25.208-25.708-106.667-114.5-106.667-187.625
				C277.333,238.854,324.188,192,384,192s106.667,46.854,106.667,106.667C490.667,371.792,409.208,460.583,384,486.292z"/>
			<path d="M384,234.667c-35.292,0-64,28.708-64,64c0,35.292,28.708,64,64,64c35.292,0,64-28.708,64-64
				C448,263.375,419.292,234.667,384,234.667z M384,341.333c-23.521,0-42.667-19.135-42.667-42.667S360.479,256,384,256
				c23.521,0,42.667,19.135,42.667,42.667S407.521,341.333,384,341.333z"/>
		</g>
	</g>
</g>
<g>
</g>
<g>
</g>
<g>
</g>
<g>
</g>
<g>
</g>
<g>
</g>
<g>
</g>
<g>
</g>
<g>
</g>
<g>
</g>
<g>
</g>
<g>
</g>
<g>
</g>
<g>
</g>
<g>
</g>
</svg>
