<?xml version="1.0" encoding="iso-8859-1"?>
<!-- Generator: Adobe Illustrator 16.0.0, SVG Export Plug-In . SVG Version: 6.00 Build 0)  -->
<!DOCTYPE svg PUBLIC "-//W3C//DTD SVG 1.1//EN" "http://www.w3.org/Graphics/SVG/1.1/DTD/svg11.dtd">
<svg version="1.1" id="Capa_1" xmlns="http://www.w3.org/2000/svg" xmlns:xlink="http://www.w3.org/1999/xlink" x="0px" y="0px"
	 width="45.564px" height="45.564px" viewBox="0 0 45.564 45.564" style="enable-background:new 0 0 45.564 45.564;"
	 xml:space="preserve">
<g>
	<g>
		<path d="M43.583,36.837H1.98c-1.094,0-1.98,0.887-1.98,1.98s0.887,1.981,1.98,1.981h41.604c1.094,0,1.98-0.888,1.98-1.981
			C45.562,37.723,44.677,36.837,43.583,36.837z"/>
		<path d="M3.45,34.602h8.899c0.175,0,0.342-0.092,0.455-0.223c0.113-0.134,0.178-0.323,0.15-0.495
			c-0.334-2.115-1.94-3.801-4.03-4.211V28.93c0-0.547-0.461-0.989-1.009-0.989s-1.009,0.442-1.009,0.989v0.742
			c-2.089,0.409-3.713,2.096-4.047,4.212c-0.027,0.172,0.023,0.361,0.137,0.495C3.11,34.511,3.276,34.602,3.45,34.602z"/>
		<path d="M17.03,34.602h24.549c0.231,0,0.429-0.182,0.465-0.411c0.292-1.836,1.399-9.535-0.063-11.765
			c-0.987-1.503-3.522-2.535-6.273-3.193c-0.021,0.016-6.416,14.375-6.416,14.375S23.065,19.21,23.05,19.197
			c-2.763,0.657-5.429,1.721-6.418,3.229c-1.464,2.229-0.356,9.929-0.065,11.765C16.603,34.42,16.799,34.602,17.03,34.602z"/>
		<path d="M29.305,18.495c3.786,0,6.865-3.08,6.865-6.865c0-3.785-3.079-6.865-6.865-6.865c-3.785,0-6.864,3.08-6.864,6.865
			C22.441,15.415,25.52,18.495,29.305,18.495z M24.602,10.948c0.109-0.013,0.231-0.029,0.365-0.051
			c1.473-0.234,4.258-0.984,5.329-3.363c0,0,1.013,2.248,3.354,2.174c0.195,0.526,0.406,1.238,0.406,1.922
			c0,2.62-2.132,4.753-4.752,4.753c-2.621,0-4.754-2.133-4.754-4.753C24.552,11.398,24.568,11.171,24.602,10.948z"/>
		<path d="M28.541,19.4c-0.202,0-0.379,0.198-0.379,0.43v8.253c0,0.09,0.031,0.176,0.076,0.246l0.77,1.201
			c0.067,0.106,0.178,0.17,0.293,0.172s0.225-0.059,0.295-0.162l0.807-1.207c0.049-0.074,0.065-0.164,0.065-0.256V19.83
			c0-0.231-0.144-0.43-0.347-0.43H28.541z"/>
	</g>
</g>
<g>
</g>
<g>
</g>
<g>
</g>
<g>
</g>
<g>
</g>
<g>
</g>
<g>
</g>
<g>
</g>
<g>
</g>
<g>
</g>
<g>
</g>
<g>
</g>
<g>
</g>
<g>
</g>
<g>
</g>
</svg>
